<svg id="Layer_1" data-name="Layer 1" xmlns="http://www.w3.org/2000/svg" viewBox="0 0 475.2887 30.1721"><path d="M122.1064,22.1019c-6.2488,5.1253-14.0026,5.9482-18.5493-1.14-7.4179,3.8285-15.5738,5.2079-23.6582,6.7823-3.5041.6825-5.5295-.0532-8.0594-2.2995-8.58,4.5234-13.1,3.8265-16.6641-2.7a36.778,36.778,0,0,0-10.9075,6.2672c-.3256.2627-.5986.6889-.9633.7841-.7933.207-1.7928.5634-2.3954.255-.4475-.229-.6911-1.4787-.5241-2.1505.5135-2.0643,1.2681-4.0693,2.0146-6.36-.8059.3345-1.43.5956-2.056.8529C31.4258,26.0605,22.237,28.5593,12.51,28.62a21.0518,21.0518,0,0,1-4.8085-.4986C1.3314,26.6563-1.2875,22.1438.6,15.9023A23.2693,23.2693,0,0,1,8.3086,4.92a17.765,17.765,0,0,1,8.5-4.34A8.7,8.7,0,0,1,25.08,3.4185c.8953.9569,1.2437,1.9594.1777,2.9584-1.032.9671-1.8082.277-2.5739-.5205A6.1314,6.1314,0,0,0,15.401,4.4748C9.2007,7.1665,5.15,11.8069,3.7734,18.479c-.6085,2.95.9008,5.5714,3.8425,6.1334a30.5835,30.5835,0,0,0,8.518.4,71.2717,71.2717,0,0,0,27.2316-7.86,6.744,6.744,0,0,0,2.0565-2.0659c2.78-3.8582,5.4829-7.7711,8.26-11.6315a6.7473,6.7473,0,0,1,1.6113-1.4122C57.3347.5859,58.8626.4374,60.2154,1.51a4.4664,4.4664,0,0,1,1.3,5.49,16.449,16.449,0,0,1-3.5994,4.5826,44.8283,44.8283,0,0,1-7.7008,5.53c-2.7573,1.4844-4.0509,3.6683-4.8288,6.7742.811-.4785,1.4134-.9044,2.0722-1.21,2.8156-1.3079,5.6318-2.6173,8.4815-3.849,1.2506-.5405,2.09.0387,2.422,1.3053,1.1724,4.468,3.4317,5.8136,7.8541,4.1916,1.9649-.7206,3.6657-2.1605,5.4694-3.3.3475-.22.5868-.6043.9268-.8405.87-.6044,1.8939-1.4663,2.8059-.4248.5047.5763.398,1.6816.3517,2.6072a3.981,3.981,0,0,0,4.3068,1.5854c5.3186-1.103,10.6174-2.3026,15.9111-3.5194a19.3457,19.3457,0,0,0,3.0279-1.1c2.1539-.8951,3.8466-1.7739,4.1512-4.7476.382-3.7287,2.994-6.2673,6.8045-7.2384,2.0266-.5164,2.9953.5026,2.4817,2.5283a15.3152,15.3152,0,0,1-4.8435,7.9835c-.9722.8442-.8738,1.5071-.2217,2.4042a6.4616,6.4616,0,0,0,7.6062,2.0087,21.9231,21.9231,0,0,0,5.5564-3.73c1.6087-1.4015,2.5076-1.4939,3.6394.2987,3.1587,5.0031,8.9724,6.2821,13.4289,2.8887a11.0589,11.0589,0,0,0,1.7951-2.1495c.2533-.3274.3882-.7479.652-1.0642.7849-.9415,1.5279-2.3229,3.0235-1.4371,1.4615.8657.8846,2.1675.1628,3.2675-.8231,1.2544-.1084,1.8783.91,2.3269a8.0124,8.0124,0,0,0,7.7434-.1794c1.0989-.6591,2.1431-1.0489,2.8942.3136.7356,1.3346-.1208,2.1061-1.2434,2.6705-4.6669,2.3465-9.0973,2.03-13.2261-1.2008C134.2832,28.4109,127.5351,27.9915,122.1064,22.1019ZM50.9118,12.2171l.5135.5746C53.3018,11.3182,55.2567,9.9282,57,8.3127c.4392-.4069.2011-1.5359.2743-2.3331-.668.2255-1.5627.2543-1.9637.7112C53.7589,8.4589,52.3647,10.3634,50.9118,12.2171Z"/><path d="M215.25,23.7312c.9437-.3889,1.8568-.812,2.8016-1.1466,4.8424-1.7148,9.5583-.9625,14.2077.7875,1.4535.5471,2.8816,1.16,4.3264,1.7309a7.4183,7.4183,0,0,0,6.7141-.5781c.726-.4158,1.4678-.8111,2.16-1.2781a7.2855,7.2855,0,0,1,6.994-.86c4.6067,1.7151,8.6528.9832,12.196-2.559a2.61,2.61,0,0,1,2.4746-.1556c5.7585,3.844,11.7886,4.7009,18.2521,2.0308a1.7269,1.7269,0,0,1,2.465,1.0759c.5148,1.224-.3741,1.71-1.3256,2.0841-6.5011,2.5559-12.8714,2.39-19.0235-1.0369a1.8993,1.8993,0,0,0-2.4945.1432c-3.3792,2.576-7.1178,3.5891-11.29,2.0769a8.0555,8.0555,0,0,0-7.5341.9732c-3.9529,2.6323-7.9356,2.6652-12.2724.8681A49.2134,49.2134,0,0,0,224.5,25.12c-3.0487-.593-5.9165.4509-8.4835,2.1942-.3933.2671-.8038.51-1.213.7527-1.6056.9524-2.5876.4979-2.8822-1.3524-.1028-.6461-.1375-1.3028-.2089-1.9541-.0644-.5874-.1364-1.174-.2369-2.0328-.6716.342-1.2211.62-1.7689.9009a52.1526,52.1526,0,0,1-27.87,6.065c-5.102-.3585-9.7567-1.9048-13.1545-6.0273-3.7443-4.5429-4.0409-10.0414-.6752-14.8632C171.43,3.8981,176.298,1.1922,182.1234.09c.98-.1853,2.0363-.2019,2.2309,1.1141a1.7134,1.7134,0,0,1-1.6059,2.1312,19.8244,19.8244,0,0,0-8.7813,3.3881c-5.1351,3.8654-6.116,11.0072-1.9964,15.4027,2.5062,2.674,5.9011,3.6339,9.3937,3.9617A47.3084,47.3084,0,0,0,211.001,18.93a3.1372,3.1372,0,0,0,.923-1.53,102.5336,102.5336,0,0,1,3.8041-9.5525A12.8159,12.8159,0,0,1,219.76,3.9106a3.7093,3.7093,0,0,1,4.9557-.0116,4.231,4.231,0,0,1,1.2434,5.1639,15.2273,15.2273,0,0,1-2.726,4.142,85.5681,85.5681,0,0,1-6.484,5.9017C214.8014,20.746,214.654,20.9378,215.25,23.7312Zm6.8779-16.75c-2.6561.8165-5.6592,5.1342-5.8611,8.4061C218.383,12.51,222.4026,11.4113,222.1279,6.9811Z"/><path d="M128.0365,6.9194c-.6432.4186-1.3228,1.2073-1.9192,1.1493-.57-.0553-1.5238-1.0539-1.46-1.5254a2.3918,2.3918,0,0,1,1.5388-1.6615c.5251-.0966,1.2316.78,1.8577,1.2257Z"/><path d="M249.6341,4.0824c.4407.6452,1.2786,1.3358,1.2109,1.9231a2.3794,2.3794,0,0,1-1.63,1.5118c-.3744.08-1.3564-.93-1.3968-1.4961-.0444-.6224.6785-1.2988,1.067-1.9517Z"/><path d="M315.672,28.1108H315.53a.82.82,0,0,1-.7731-.8038V5.4824a.835.835,0,0,1,.8443-.802h4.6057c6.7845,0,12.3036,5.2884,12.3036,11.7479,0,6.4615-5.5191,11.6825-12.3036,11.6825Zm4.5346-1.64a10.319,10.319,0,0,0,10.5806-10.0422A10.3727,10.3727,0,0,0,320.2066,6.3208H316.48v20.15Z"/><path d="M345.3023,5.4824a.835.835,0,0,1,.8442-.802h12.6556a.8128.8128,0,0,1,.8442.802.8215.8215,0,0,1-.8442.8384H347.0254v9.271h10.3a.8205.8205,0,1,1,0,1.64h-10.3v9.2383h11.7767a.82.82,0,1,1,0,1.64H346.0754a.82.82,0,0,1-.7731-.8038Z"/><path d="M372.0519,23.7263a.7743.7743,0,0,1,1.09-.1,13.8585,13.8585,0,0,0,8.0864,3.0115,9.5645,9.5645,0,0,0,5.4134-1.54,4.2852,4.2852,0,0,0,2.1095-3.4807,3.7122,3.7122,0,0,0-2.0038-3.2134,16.7449,16.7449,0,0,0-5.696-1.9077h-.0693a15.9545,15.9545,0,0,1-5.8018-1.9749A4.8215,4.8215,0,0,1,372.65,10.438a5.4045,5.4045,0,0,1,2.5672-4.3864,10.4479,10.4479,0,0,1,5.94-1.7058c3.2346,0,5.66,1.5058,7.5941,2.71a.7261.7261,0,0,1,.2116,1.0385.7692.7692,0,0,1-1.0558.2019c-1.9326-1.2058-4.0422-2.4788-6.75-2.4788a9.1,9.1,0,0,0-5.0268,1.4057,4.0387,4.0387,0,0,0-1.9346,3.2153,3.378,3.378,0,0,0,1.8288,2.8442,14.8036,14.8036,0,0,0,5.273,1.775h.0712A17.3544,17.3544,0,0,1,387.6267,17.2a5.22,5.22,0,0,1,2.7057,4.4172,5.8338,5.8338,0,0,1-2.7769,4.6865,11.1931,11.1931,0,0,1-6.3268,1.84,15.7789,15.7789,0,0,1-9.071-3.3807A.7491.7491,0,0,1,372.0519,23.7263Z"/><path d="M403.8976,5.4824a.8349.8349,0,0,1,.8442-.802.844.844,0,0,1,.8788.802V27.307a.8443.8443,0,0,1-.8788.8038.8352.8352,0,0,1-.8442-.8038Z"/><path d="M432.8971,17.5668a.8237.8237,0,0,1-.8788-.8039.8507.8507,0,0,1,.8788-.8365h7.7a.8535.8535,0,0,1,.773.8365V24.93a.931.931,0,0,1-.3173.6039,13.1018,13.1018,0,0,1-7.9441,2.5768c-7.0672-.0326-12.7959-5.2883-12.7959-11.9171,0-6.5268,5.7287-11.8479,12.7959-11.8479A13.2654,13.2654,0,0,1,441.0893,6.99a.8.8,0,0,1,.1057,1.1365.9444.9444,0,0,1-1.2307.1347,11.16,11.16,0,0,0-6.8557-2.2769c-6.1518,0-11.0748,4.5864-11.0748,10.2094,0,5.69,4.923,10.2768,11.0748,10.2768a11.4439,11.4439,0,0,0,6.5038-2.0077v-6.896Z"/><path d="M458.8371,8.1265V27.307a.8453.8453,0,0,1-1.6885,0V5.817a.788.788,0,0,1,.3173-.9039.9079.9079,0,0,1,1.1942.202l14.9056,19.6823V5.717a.8636.8636,0,0,1,1.723,0v21.59a.8443.8443,0,0,1-.8788.8038.8283.8283,0,0,1-.6673-.3019c-.0346-.0327-.1058-.0654-.14-.1327Z"/></svg>