<svg id="Layer_1" data-name="Layer 1" xmlns="http://www.w3.org/2000/svg" viewBox="0 0 254.5002 209.8237"><path d="M34.6607,49.2475a6.84,6.84,0,0,1,3.3174-2.6445.4042.4042,0,0,1,.5362.2686.43.43,0,0,1-.2637.5527,5.8819,5.8819,0,0,0-2.8945,2.2822,5.2066,5.2066,0,1,0,9.6289,2.208.4479.4479,0,0,1,.43-.4658.3884.3884,0,0,1,.4678.3731,6.8237,6.8237,0,0,1-1.1465,4.0771,6.2673,6.2673,0,0,1-8.5918,2.1143A6.2837,6.2837,0,0,1,34.6607,49.2475Z"/><path d="M51.52,38.6518l-4.3291,4.752,3.7979,3.456a.4294.4294,0,0,1,.0009.6045.4243.4243,0,0,1-.5908.042l-8.1972-7.4609a.4241.4241,0,0,1-.0137-.5918.43.43,0,0,1,.6025-.0557l3.7969,3.4571,4.3291-4.752L47.12,34.647a.4242.4242,0,0,1-.0136-.5918.429.429,0,0,1,.6025-.0547l8.1973,7.4609a.4383.4383,0,0,1-.5889.6465Z"/><path d="M63.51,31.0649l-4.3564,3.666.958,2.8594a.44.44,0,0,1-.1387.4727c-.0273.0234-.0927.0556-.1337.0908a.4277.4277,0,0,1-.5411-.2559L55.5162,26.6587a.4787.4787,0,0,1,.1641-.4707.4407.4407,0,0,1,.4912-.0811L66.59,31.7622a.4191.4191,0,0,1,.1729.5664c-.0547.0459-.0713.082-.1123.1162a.4589.4589,0,0,1-.4893.0557Zm-4.6464,2.8213,3.8642-3.2519-6.039-3.2735Z"/><path d="M74.94,23.66a2.127,2.127,0,0,0-1.8222-.9825,4.1079,4.1079,0,0,0-1.541.2676c-.0538.0147-.0782.01-.0938.0186l-2.5674,1.6191,2.5108,3.9854a.4311.4311,0,0,1-.16.5839.4246.4246,0,0,1-.58-.1171l-5.91-9.3819a.4306.4306,0,0,1,.1152-.5547l.03-.0185.0449-.0293,2.9463-1.8565a3.4713,3.4713,0,0,1,4.8184.9834,3.3936,3.3936,0,0,1-.0967,3.6993,1.63,1.63,0,0,0,.1963-.0235,2.9991,2.9991,0,0,1,2.8339,1.35,4.3861,4.3861,0,0,0,.87,1.08.6155.6155,0,0,0,.3056.1494.4719.4719,0,0,1,.5528-.0273.4581.4581,0,0,1,.0478.6133,1.8839,1.8839,0,0,1-.1719.1289l-.03.0185a.9965.9965,0,0,1-.97-.0322A4.0141,4.0141,0,0,1,74.94,23.66Zm-6.5839-5.7608-2.6133,1.6475L68.48,23.8921l2.5381-1.6.1357-.086a2.57,2.57,0,1,0-2.7978-4.3076Z"/><path d="M83.1383,22.2475l-.0322.0147a.4237.4237,0,0,1-.56-.1914L77.9107,12.0034a.4382.4382,0,0,1,.794-.3662l4.458,9.6816,5.4287-2.5048a.4176.4176,0,1,1,.3486.7568Z"/><path d="M90.6891,6.6782a.438.438,0,0,1,.8271-.2822l3.5723,10.4961a.4293.4293,0,0,1-.291.53.4243.4243,0,0,1-.5372-.248Z"/><path d="M99.1939,4.0473a.4252.4252,0,0,1,.3282-.4931l.0341-.0078L105.79,2.1372a.4167.4167,0,1,1,.1836.8125l-5.832,1.3193L101.18,8.8628,106.2818,7.71a.4167.4167,0,1,1,.1836.8125l-5.1006,1.1543,1.0362,4.5771,5.832-1.3184a.4167.4167,0,1,1,.1836.8125l-6.2148,1.4053-.0528.0117-.0342.0078a.4168.4168,0,0,1-.4736-.3115Z"/><path d="M128.232.0005a6.8474,6.8474,0,0,1,4.0137,1.374.404.404,0,0,1,.0625.5967.4315.4315,0,0,1-.6084.0752A5.8815,5.8815,0,0,0,128.2193.8335,5.4188,5.4188,0,0,0,122.51,5.978a5.41,5.41,0,0,0,5.54,5.2588,5.4851,5.4851,0,0,0,3.4824-1.1.4464.4464,0,0,1,.6231.1113.3879.3879,0,0,1-.0625.5947,6.83,6.83,0,0,1-4.0557,1.2256,6.2645,6.2645,0,0,1-6.4014-6.1054A6.2857,6.2857,0,0,1,128.232.0005Z"/><path d="M138.9225,11.0415a.8507.8507,0,1,1-.9825.7441A.8632.8632,0,0,1,138.9225,11.0415Z"/><path d="M152.7418,15.3169l-.0684-.0215a.4171.4171,0,0,1-.2539-.5059l3.3037-10.5859a.4237.4237,0,0,1,.53-.2617l.0508.0156,2.1816.68a6.1231,6.1231,0,0,1,4.1875,7.5576,6.1022,6.1022,0,0,1-7.7334,3.8076Zm2.4463-.11a5.2447,5.2447,0,0,0,6.65-3.2724,5.2676,5.2676,0,0,0-3.6006-6.501L156.4312,4.87l-3.05,9.7744Z"/><path d="M170.6324,9.4067a.4246.4246,0,0,1,.5606-.1894l.0322.0156,5.7959,2.6982a.4166.4166,0,1,1-.3516.7549l-5.4238-2.5244L169.2594,14.43l4.7441,2.2089a.4165.4165,0,1,1-.3515.7549l-4.7442-2.209-1.9785,4.254,5.4228,2.5253a.4165.4165,0,1,1-.3515.7549l-5.7793-2.6914-.0488-.0224-.0323-.0147a.4167.4167,0,0,1-.1836-.5361Z"/><path d="M178.02,23.4057a.3916.3916,0,0,1,.4922.2569,7.0457,7.0457,0,0,0,2.6221,3.5117,4.86,4.86,0,0,0,2.7334.832,2.1743,2.1743,0,0,0,1.8564-.9062,1.8845,1.8845,0,0,0,.0283-1.9238,8.4919,8.4919,0,0,0-1.9052-2.3829l-.03-.0195a8.0959,8.0959,0,0,1-1.9317-2.4394,2.4544,2.4544,0,0,1,.042-2.44,2.7458,2.7458,0,0,1,2.3008-1.167,5.3012,5.3012,0,0,1,3.0039.9053,7.1208,7.1208,0,0,1,2.4951,3.2481.3684.3684,0,0,1-.1953.5009.3885.3885,0,0,1-.5058-.2041,6.3843,6.3843,0,0,0-2.1983-2.915,4.6143,4.6143,0,0,0-2.5312-.7832,2.0458,2.0458,0,0,0-1.709.8408,1.7178,1.7178,0,0,0-.002,1.7178,7.5368,7.5368,0,0,0,1.7627,2.209l.0293.02a8.8208,8.8208,0,0,1,2.0811,2.6367,2.6551,2.6551,0,0,1-.06,2.6319,2.9629,2.9629,0,0,1-2.4726,1.2382,5.6841,5.6841,0,0,1-3.2061-.955,8.0208,8.0208,0,0,1-2.94-3.94A.38.38,0,0,1,178.02,23.4057Z"/><path d="M196.3424,24.9057a.424.424,0,0,1,.59-.0459.43.43,0,0,1,.0879.5987l-6.9941,8.5957a.4383.4383,0,0,1-.6778-.5527Z"/><path d="M202.8707,39.2339a.4183.4183,0,0,1-.0137-.6045.4308.4308,0,0,1,.6153.0283l2.666,2.7852.0371.038a.4343.4343,0,0,1-.0352.5782l-2.9443,2.8232-.0488.0469a.475.475,0,0,1-.3321.0957,6.6512,6.6512,0,0,1-3.7343-2.0078,6.05,6.05,0,1,1,8.71-8.3526,6.7336,6.7336,0,0,1,1.833,3.8565.4068.4068,0,0,1-.38.4385.48.48,0,0,1-.4814-.4043,5.665,5.665,0,0,0-1.5723-3.3145,5.2174,5.2174,0,1,0-7.5088,7.2,5.797,5.797,0,0,0,3.0206,1.6787l2.5263-2.4228Z"/><path d="M215.0875,46.2075l-8.0439,5.5A.4291.4291,0,0,1,206.56,51l9.0117-6.1611a.4006.4006,0,0,1,.47-.127.4616.4616,0,0,1,.2588.5586L212.316,57.1636l8.001-5.4707a.4248.4248,0,0,1,.5791.123.43.43,0,0,1-.085.6l-9.0547,6.19a.4284.4284,0,0,1-.5888-.1386.422.422,0,0,1-.0645-.3662.2536.2536,0,0,1,.0156-.0977Z"/><rect y="104.7516" width="90.5" height="1"/><path d="M170.26,108.8142c-3.1733,2.6028-7.1108,3.0207-9.42-.5788-3.7669,1.9442-7.9087,2.6447-12.0141,3.4442a4.1489,4.1489,0,0,1-4.0927-1.1678c-4.357,2.2971-6.6523,1.9432-8.4624-1.3709a18.6741,18.6741,0,0,0-5.539,3.1827c-.1654.1334-.304.35-.4892.3981-.4029.1051-.91.2861-1.2164.13-.2273-.1163-.351-.7509-.2662-1.092.2608-1.0483.644-2.0665,1.0231-3.23-.4093.17-.7263.3025-1.0441.4332a37.6081,37.6081,0,0,1-14.1343,3.1616,10.6981,10.6981,0,0,1-2.4419-.2532c-3.235-.7438-4.565-3.0354-3.6064-6.205a11.8168,11.8168,0,0,1,3.9145-5.577,9.0212,9.0212,0,0,1,4.3165-2.204,4.4182,4.4182,0,0,1,4.2,1.4415c.4547.486.6316.995.09,1.5024-.5241.4911-.9183.1406-1.3071-.2643a3.1135,3.1135,0,0,0-3.6984-.7016,9.5627,9.5627,0,0,0-5.9048,7.1116,2.48,2.48,0,0,0,1.9513,3.1146,15.5322,15.5322,0,0,0,4.3257.203,36.1958,36.1958,0,0,0,13.8287-3.9914,3.4244,3.4244,0,0,0,1.0444-1.0491c1.4116-1.9593,2.7843-3.9463,4.1944-5.9067a3.4253,3.4253,0,0,1,.8183-.7171c1.0367-.74,1.8127-.8152,2.5-.2706a2.2681,2.2681,0,0,1,.66,2.7881,8.3523,8.3523,0,0,1-1.8278,2.3272,22.7681,22.7681,0,0,1-3.9106,2.808,4.8311,4.8311,0,0,0-2.4522,3.44c.4119-.243.7178-.4593,1.0523-.6147,1.43-.6642,2.86-1.3291,4.3071-1.9546.6351-.2744,1.0612.02,1.23.6629.5953,2.269,1.7427,2.9523,3.9884,2.1286a15.659,15.659,0,0,0,2.7775-1.676c.1765-.1115.298-.3069.4706-.4269.4419-.3069.9618-.7446,1.425-.2157.2562.2927.202.854.1785,1.324a2.0217,2.0217,0,0,0,2.1871.8051c2.7009-.56,5.3917-1.1693,8.08-1.7872a9.8215,9.8215,0,0,0,1.5376-.5585c1.0938-.4546,1.9534-.9008,2.1081-2.4109a4.224,4.224,0,0,1,3.4555-3.6758c1.0291-.2623,1.521.2552,1.26,1.2839a7.7769,7.7769,0,0,1-2.46,4.0542c-.4937.4286-.4437.7653-.1126,1.2208a3.2812,3.2812,0,0,0,3.8626,1.02,11.1326,11.1326,0,0,0,2.8216-1.8942c.817-.7118,1.2735-.7587,1.8482.1517a4.5715,4.5715,0,0,0,6.82,1.4669,5.6113,5.6113,0,0,0,.9115-1.0916c.1287-.1662.1972-.38.3311-.54.3987-.4781.776-1.18,1.5354-.73.7422.44.4493,1.1007.0828,1.6593-.418.637-.0551.9538.4621,1.1817a4.0691,4.0691,0,0,0,3.9323-.0911c.5581-.3348,1.0883-.5327,1.47.1592.3736.6777-.0613,1.07-.6314,1.3562a5.8614,5.8614,0,0,1-6.7164-.61A6.6385,6.6385,0,0,1,170.26,108.8142Zm-36.1541-5.02.2608.2917c.9529-.7483,1.9456-1.4541,2.8309-2.2745.223-.2066.1021-.78.1393-1.1848-.3392.1145-.7936.1291-.9972.3612C135.5516,101.886,134.8436,102.8532,134.1058,103.7946Z"/><path d="M217.56,109.6416c.4792-.1974.9429-.4123,1.4227-.5822a10.2068,10.2068,0,0,1,7.215.4c.7381.2778,1.4633.5893,2.197.879a3.7669,3.7669,0,0,0,3.41-.2936c.3687-.2112.7454-.4119,1.0968-.649a3.7,3.7,0,0,1,3.5517-.4368,5.4114,5.4114,0,0,0,6.1934-1.3,1.3249,1.3249,0,0,1,1.2566-.0789,9.3373,9.3373,0,0,0,9.2688,1.0312.877.877,0,0,1,1.2518.5464c.2614.6215-.19.8684-.6732,1.0584a10.8237,10.8237,0,0,1-9.6605-.5266.9645.9645,0,0,0-1.2668.0727,5.7528,5.7528,0,0,1-5.7331,1.0547,4.0907,4.0907,0,0,0-3.826.4942,6.1867,6.1867,0,0,1-6.2322.4408,24.9873,24.9873,0,0,0-4.7743-1.4053,5.6819,5.6819,0,0,0-4.3081,1.1143c-.2.1356-.4081.2589-.616.3822-.8153.4837-1.314.2528-1.4636-.6868-.0522-.3281-.07-.6616-.1061-.9923-.0327-.2983-.0693-.5962-.12-1.0323-.3411.1736-.62.3148-.8983.4575a26.4847,26.4847,0,0,1-14.1531,3.08,8.9713,8.9713,0,0,1-6.68-3.0608,5.9438,5.9438,0,0,1-.3428-7.5478,10.7854,10.7854,0,0,1,7.1689-4.4244c.4975-.0941,1.0341-.1026,1.1329.5657a.87.87,0,0,1-.8155,1.0823,10.0666,10.0666,0,0,0-4.4593,1.7206,5.2935,5.2935,0,0,0-1.0138,7.8217,7.1549,7.1549,0,0,0,4.77,2.0119,24.0246,24.0246,0,0,0,15.05-3.635,1.5938,1.5938,0,0,0,.4688-.7768,52.0475,52.0475,0,0,1,1.9318-4.8509,6.5082,6.5082,0,0,1,2.0473-2,1.8838,1.8838,0,0,1,2.5167-.0059,2.1488,2.1488,0,0,1,.6314,2.6224,7.7326,7.7326,0,0,1-1.3843,2.1034,43.4557,43.4557,0,0,1-3.2927,2.997C217.3323,108.1257,217.2574,108.2231,217.56,109.6416Zm3.4927-8.506c-1.3488.4146-2.8738,2.6072-2.9763,4.2688C219.1511,103.943,221.1923,103.3853,221.0528,101.1356Z"/><path d="M173.2713,101.1043c-.3267.2125-.6718.613-.9746.5836-.2895-.0281-.7738-.5352-.7417-.7746a1.2143,1.2143,0,0,1,.7814-.8437c.2667-.0491.6255.3961.9434.6224Z"/><path d="M235.0211,99.6636c.2237.3276.6493.6783.6149.9766a1.2086,1.2086,0,0,1-.8278.7677c-.19.0405-.6888-.4723-.7093-.76-.0225-.316.3445-.6595.5418-.9911Z"/><path d="M48.49,153.4057a6.8345,6.8345,0,0,1,.8994,4.1456.4036.4036,0,0,1-.4775.3613.4315.4315,0,0,1-.38-.4824,5.8737,5.8737,0,0,0-.7617-3.6055,5.22,5.22,0,1,0-8.9932,5.2393,5.48,5.48,0,0,0,2.7432,2.41.4473.4473,0,0,1,.2256.5918.3868.3868,0,0,1-.541.2529,6.8247,6.8247,0,0,1-3.1475-2.8359A6.0532,6.0532,0,1,1,48.49,153.4057Z"/><path d="M53.4382,171.3022l-4.1035-4.9433L45.3854,169.64a.4387.4387,0,0,1-.5586-.6738l8.5264-7.083a.423.423,0,0,1,.5869.0693.4282.4282,0,0,1-.0283.6035l-3.9492,3.2813,4.1035,4.9433,3.9492-3.28a.423.423,0,0,1,.5869.0683.4293.4293,0,0,1-.0283.6045l-8.5264,7.083a.4382.4382,0,0,1-.5585-.6728Z"/><path d="M61.697,182.89l-4.2207-3.8261-2.7032,1.3339a.4421.4421,0,0,1-.4873-.0752c-.0263-.0234-.0674-.0839-.1074-.12a.4293.4293,0,0,1,.18-.5713l10.623-5.2548a.4782.4782,0,0,1,.4883.0986.4428.4428,0,0,1,.1465.4765l-4.1924,11.085a.4207.4207,0,0,1-.5381.2471c-.0527-.0489-.0908-.06-.13-.0957a.4608.4608,0,0,1-.1221-.4776Zm-3.4229-4.2275,3.7441,3.3945,2.4258-6.4238Z"/><path d="M72.8806,191.63a2.1242,2.1242,0,0,0,.1591-2.0635,4.131,4.131,0,0,0-.87-1.3c-.0351-.044-.04-.0674-.0547-.0772l-2.5215-1.6914-2.625,3.9092a.4293.4293,0,0,1-.5986.09.424.424,0,0,1-.1279-.5771l6.1777-9.2022a.4293.4293,0,0,1,.5537-.12l.03.02.0439.03,2.8926,1.94a3.4715,3.4715,0,0,1,1.0557,4.8027,3.3941,3.3941,0,0,1-3.42,1.4112,1.8124,1.8124,0,0,0,.1006.17,2.9987,2.9987,0,0,1-.084,3.1367,4.3394,4.3394,0,0,0-.6338,1.2334.607.607,0,0,0-.0127.3389.4725.4725,0,0,1,.248.4941.4565.4565,0,0,1-.54.293,1.9886,1.9886,0,0,1-.1875-.1055l-.03-.0195a.9974.9974,0,0,1-.3633-.8994A4.0123,4.0123,0,0,1,72.8806,191.63Zm2.5947-8.3506L72.91,181.5581l-2.8624,4.2627,2.4922,1.6709.1338.09a2.5685,2.5685,0,1,0,2.8018-4.3017Z"/><path d="M79.2419,198.3921l-.0322-.0156a.4238.4238,0,0,1-.2071-.5538l4.835-9.9687a.4236.4236,0,0,1,.5635-.18.428.428,0,0,1,.2226.5615l-4.6494,9.586,5.3779,2.6123a.4323.4323,0,0,1,.2159.5771.4279.4279,0,0,1-.5791.1719Z"/><path d="M95.24,192.8579a.425.425,0,0,1,.54-.2412.43.43,0,0,1,.2841.5342l-3.7109,10.4463a.4384.4384,0,0,1-.8242-.293Z"/><path d="M102.37,195.1929a.4249.4249,0,0,1,.51-.3l.0351.0078,6.2217,1.4472a.4169.4169,0,1,1-.1894.8116l-5.8223-1.3545-1.0693,4.5859,5.0927,1.1846a.4168.4168,0,1,1-.1894.8115l-5.0918-1.1846-1.0654,4.5694,5.8222,1.3545a.4168.4168,0,1,1-.1894.8115l-6.2051-1.4444-.0518-.0117-.0351-.0078a.4165.4165,0,0,1-.2891-.4863Z"/><path d="M128.2546,197.7544a6.8392,6.8392,0,0,1,4.0556,1.2431.4032.4032,0,0,1,.0811.5938.4308.4308,0,0,1-.6055.0947,5.875,5.875,0,0,0-3.5176-1.0986,5.2177,5.2177,0,1,0,.168,10.4023,5.4877,5.4877,0,0,0,3.4453-1.2119.4462.4462,0,0,1,.626.0918.3875.3875,0,0,1-.0439.5957,6.8241,6.8241,0,0,1-4.0137,1.3574,6.0515,6.0515,0,1,1-.1953-12.0683Z"/><path d="M139.9743,207.2593a.8512.8512,0,1,1-.7754.958A.8635.8635,0,0,1,139.9743,207.2593Z"/><path d="M156.0554,205.6284l-.0684.0234a.4171.4171,0,0,1-.5039-.2587l-3.6006-10.4854a.4239.4239,0,0,1,.2725-.5254l.05-.0176,2.16-.7422a5.9587,5.9587,0,1,1,3.8672,11.2579Zm1.9062-1.5361a5.1243,5.1243,0,1,0-3.3252-9.6817l-1.789.6143,3.3251,9.6826Z"/><path d="M164.9626,189.9741a.4235.4235,0,0,1,.1963-.5576l.0312-.0166,5.6924-2.9063a.4168.4168,0,1,1,.3789.7422l-5.3262,2.72,2.1426,4.1923,4.6592-2.3779a.4164.4164,0,1,1,.3789.7412l-4.6592,2.3789,2.1358,4.1778,5.3261-2.72a.4173.4173,0,0,1,.5752.1836.4123.4123,0,0,1-.1963.5576l-5.6757,2.8985-.0479.0244-.0322.0166a.417.417,0,0,1-.5352-.1856Z"/><path d="M180.9479,191.7778a.3935.3935,0,0,1,.4219-.3623,7.0434,7.0434,0,0,0,4.2334-1.1328,4.8582,4.8582,0,0,0,1.7891-2.2305,2.1777,2.1777,0,0,0-.1494-2.0615,1.8822,1.8822,0,0,0-1.7754-.74,8.5042,8.5042,0,0,0-2.919.8857l-.0293.02a8.0967,8.0967,0,0,1-2.9824.89,2.4465,2.4465,0,0,1-2.249-.9453,2.7465,2.7465,0,0,1-.2266-2.57,5.3221,5.3221,0,0,1,1.959-2.455,7.1171,7.1171,0,0,1,3.9414-1.1123.3677.3677,0,0,1,.3916.3681.3878.3878,0,0,1-.3769.3926,6.39,6.39,0,0,0-3.5235.9619,4.6121,4.6121,0,0,0-1.6679,2.0606,2.048,2.048,0,0,0,.1435,1.8994,1.7141,1.7141,0,0,0,1.5938.64,7.52,7.52,0,0,0,2.705-.8174l.0293-.02a8.8345,8.8345,0,0,1,3.2207-.955,2.6513,2.6513,0,0,1,2.42,1.0322,2.9625,2.9625,0,0,1,.2285,2.7568,5.6887,5.6887,0,0,1-2.0791,2.624,8.0194,8.0194,0,0,1-4.75,1.2706A.38.38,0,0,1,180.9479,191.7778Z"/><path d="M187.2819,175.229a.4234.4234,0,0,1,.044-.59.4285.4285,0,0,1,.6045.003l7.4414,8.2177a.4291.4291,0,0,1-.0567.6016.4242.4242,0,0,1-.5918-.0146Z"/><path d="M201.1794,169.7153a.4179.4179,0,0,1-.6.0762.432.432,0,0,1-.0352-.6152l2.4951-2.94.0352-.041a.4318.4318,0,0,1,.5771-.0244l3.1094,2.6406.0518.0439a.4754.4754,0,0,1,.13.32,6.6626,6.6626,0,0,1-1.6133,3.9228,6.05,6.05,0,1,1-9.1983-7.81,6.73,6.73,0,0,1,3.6455-2.2207.406.406,0,0,1,.4756.333.48.48,0,0,1-.3525.52,5.66,5.66,0,0,0-3.1338,1.9062,5.2166,5.2166,0,1,0,7.9287,6.7324,5.807,5.807,0,0,0,1.3594-3.1777l-2.669-2.2666Z"/><path d="M204.572,157.2222l8.4111,4.913a.429.429,0,0,1-.4316.74l-9.4239-5.5059a.4.4,0,0,1-.3154-.37.4606.4606,0,0,1,.3935-.4727l12.4483-1.4921-8.3662-4.8877a.438.438,0,0,1,.44-.7549l9.4688,5.5312a.45.45,0,0,1-.1768.8067.2737.2737,0,0,1-.0947.0273Z"/></svg>